<svg width="29" height="28" viewBox="0 0 29 28" fill="none" xmlns="http://www.w3.org/2000/svg">
<path d="M5.37947 0H23.2622C26.221 0 28.6417 2.36649 28.6417 5.25903V22.741C28.6417 25.6335 26.221 28 23.2622 28H5.37947C2.42069 28 0 25.6335 0 22.741V5.25903C0 2.36649 2.42069 0 5.37947 0Z" fill="#3E7CB1"/>
<path fill-rule="evenodd" clip-rule="evenodd" d="M14.1755 19C16.937 19 19.1755 16.7614 19.1755 14C19.1755 11.2386 16.937 9 14.1755 9C11.4141 9 9.17554 11.2386 9.17554 14C9.17554 16.7614 11.4141 19 14.1755 19ZM14.1755 17.3333C16.0165 17.3333 17.5089 15.8409 17.5089 14C17.5089 12.159 16.0165 10.6667 14.1755 10.6667C12.3346 10.6667 10.8422 12.159 10.8422 14C10.8422 15.8409 12.3346 17.3333 14.1755 17.3333Z" fill="white"/>
<path d="M19.1755 8.16669C18.7153 8.16669 18.3422 8.53979 18.3422 9.00002C18.3422 9.46025 18.7153 9.83335 19.1755 9.83335C19.6358 9.83335 20.0089 9.46025 20.0089 9.00002C20.0089 8.53979 19.6358 8.16669 19.1755 8.16669Z" fill="white"/>
<path fill-rule="evenodd" clip-rule="evenodd" d="M5.55384 7.56336C5.00887 8.63292 5.00887 10.0331 5.00887 12.8333V15.1666C5.00887 17.9669 5.00887 19.3671 5.55384 20.4366C6.03321 21.3774 6.79811 22.1423 7.73892 22.6216C8.80848 23.1666 10.2086 23.1666 13.0089 23.1666H15.3422C18.1425 23.1666 19.5426 23.1666 20.6121 22.6216C21.553 22.1423 22.3179 21.3774 22.7972 20.4366C23.3422 19.3671 23.3422 17.9669 23.3422 15.1666V12.8333C23.3422 10.0331 23.3422 8.63292 22.7972 7.56336C22.3179 6.62255 21.553 5.85765 20.6121 5.37828C19.5426 4.83331 18.1425 4.83331 15.3422 4.83331H13.0089C10.2086 4.83331 8.80848 4.83331 7.73892 5.37828C6.79811 5.85765 6.03321 6.62255 5.55384 7.56336ZM15.3422 6.49998H13.0089C11.5812 6.49998 10.6107 6.50128 9.86061 6.56256C9.12991 6.62226 8.75624 6.73047 8.49557 6.86329C7.86836 7.18287 7.35843 7.6928 7.03885 8.32001C6.90603 8.58068 6.79782 8.95435 6.73812 9.68505C6.67684 10.4352 6.67554 11.4057 6.67554 12.8333V15.1666C6.67554 16.5943 6.67684 17.5647 6.73812 18.3149C6.79782 19.0456 6.90603 19.4193 7.03885 19.68C7.35843 20.3071 7.86836 20.8171 8.49557 21.1366C8.75624 21.2695 9.12991 21.3777 9.86061 21.4374C10.6107 21.4986 11.5812 21.5 13.0089 21.5H15.3422C16.7699 21.5 17.7403 21.4986 18.4905 21.4374C19.2212 21.3777 19.5949 21.2695 19.8555 21.1366C20.4827 20.8171 20.9926 20.3071 21.3122 19.68C21.445 19.4193 21.5533 19.0456 21.613 18.3149C21.6742 17.5647 21.6755 16.5943 21.6755 15.1666V12.8333C21.6755 11.4057 21.6742 10.4352 21.613 9.68505C21.5533 8.95435 21.445 8.58068 21.3122 8.32001C20.9926 7.6928 20.4827 7.18287 19.8555 6.86329C19.5949 6.73047 19.2212 6.62226 18.4905 6.56256C17.7403 6.50128 16.7699 6.49998 15.3422 6.49998Z" fill="white"/>
</svg>
