<svg width="29" height="28" viewBox="0 0 29 28" fill="none" xmlns="http://www.w3.org/2000/svg">
<path d="M5.37947 0H23.2622C26.221 0 28.6417 2.36649 28.6417 5.25903V22.7414C28.6417 25.634 26.221 28.0005 23.2622 28.0005H5.37947C2.42069 28 0 25.6335 0 22.741V5.25903C0 2.36649 2.42069 0 5.37947 0Z" fill="#3E7CB1"/>
<g clip-path="url(#clip0_227_868)">
<path fill-rule="evenodd" clip-rule="evenodd" d="M9.62876 20.9905V11.1141H6.34642V20.9904H9.62876V20.9905ZM7.98793 9.76618C9.13219 9.76618 9.84498 9.00716 9.84498 8.05942C9.82334 7.09062 9.13219 6.35303 8.00939 6.35303C6.88641 6.35306 6.15237 7.09065 6.15237 8.05945C6.15237 9.00719 6.86477 9.76621 7.96632 9.76621L7.98793 9.76618ZM11.4454 20.9905C11.4454 20.9905 11.4885 12.0408 11.4454 11.1142H14.7283V12.5464H14.7065C15.1381 11.8725 15.9158 10.8822 17.6865 10.8822C19.8467 10.8822 21.4659 12.2938 21.4659 15.3275V20.9905H18.1836V15.7069C18.1836 14.3793 17.7086 13.4734 16.5205 13.4734C15.6138 13.4734 15.0735 14.0841 14.8362 14.6745C14.7494 14.8846 14.7283 15.1798 14.7283 15.475V20.9905H11.4454Z" fill="white"/>
</g>
<defs>
<clipPath id="clip0_227_868">
<rect width="15.3435" height="15.3435" fill="white" transform="translate(6.13739 6)"/>
</clipPath>
</defs>
</svg>
